<svg width="200" height="56" viewBox="0 0 200 56" fill="none" xmlns="http://www.w3.org/2000/svg">
  <!-- "Sage" wordmark as paths -->
  <!-- S -->
  <path d="M10 38 C10 38 10 42 16 42 C22 42 22 36 16 34 C10 32 10 26 16 26 C20 26 22 28 22 28" stroke="#2D5F4E" stroke-width="3.5" stroke-linecap="round" stroke-linejoin="round" fill="none"/>
  <!-- a -->
  <path d="M28 32 C28 28 32 26 36 28 C38 29 39 31 39 34 L39 42" stroke="#2D5F4E" stroke-width="3.5" stroke-linecap="round" stroke-linejoin="round" fill="none"/>
  <path d="M28 37 C28 41 32 43 36 41 C38 40 39 38 39 36" stroke="#2D5F4E" stroke-width="3.5" stroke-linecap="round" stroke-linejoin="round" fill="none"/>
  <!-- g -->
  <path d="M46 32 C46 28 50 26 54 28 C56 29 57 31 57 34 C57 38 55 42 51 43 C48 44 46 42 46 42" stroke="#2D5F4E" stroke-width="3.5" stroke-linecap="round" stroke-linejoin="round" fill="none"/>
  <circle cx="51.5" cy="34" r="4.5" stroke="#2D5F4E" stroke-width="3.5" fill="none"/>
  <!-- e -->
  <path d="M64 35 L76 35 C76 28 70 25 65 28 C62 30 62 36 65 39 C68 42 74 42 76 40" stroke="#2D5F4E" stroke-width="3.5" stroke-linecap="round" stroke-linejoin="round" fill="none"/>

  <!-- Stylized gold "V" mark — two soundwave arcs meeting at a point -->
  <!-- Left arc (coming down) -->
  <path d="M92 18 C96 22 98 26 100 30 C102 34 104 38 108 30 C112 22 116 18 120 14" stroke="#D4A574" stroke-width="4" stroke-linecap="round" stroke-linejoin="round" fill="none"/>
  <!-- Bottom apex dot -->
  <circle cx="100" cy="31" r="2.5" fill="#D4A574"/>
  <!-- Outer left arc (soundwave) -->
  <path d="M86 22 C90 27 93 29 95 32" stroke="#D4A574" stroke-width="2.5" stroke-linecap="round" fill="none" opacity="0.6"/>
  <!-- Outer right arc (soundwave) -->
  <path d="M114 22 C110 27 107 29 105 32" stroke="#D4A574" stroke-width="2.5" stroke-linecap="round" fill="none" opacity="0.6"/>

  <!-- " V" text label (thin, below the mark) -->
  <text x="92" y="50" font-family="system-ui, sans-serif" font-size="10" font-weight="600" fill="#D4A574" letter-spacing="2">V</text>
</svg>
